<mxfile host="app.diagrams.net" modified="2021-08-14T09:30:59.128Z" agent="5.0 (Macintosh; Intel Mac OS X 10_15_7) AppleWebKit/537.36 (KHTML, like Gecko) Chrome/86.0.4240.193 Safari/537.36" etag="mdRQbfuMEtLc-joXd5VG" version="14.9.5" type="github">
  <diagram id="tvn6oIhBFbH-xJjN8TFy" name="Page-1">
    <mxGraphModel dx="946" dy="536" grid="1" gridSize="10" guides="1" tooltips="1" connect="1" arrows="1" fold="1" page="1" pageScale="1" pageWidth="827" pageHeight="1169" math="0" shadow="0">
      <root>
        <mxCell id="0" />
        <mxCell id="1" parent="0" />
        <mxCell id="J4aeNhYYvG5e2JbsOcUa-1" value="1" style="ellipse;whiteSpace=wrap;html=1;aspect=fixed;" vertex="1" parent="1">
          <mxGeometry x="230" y="190" width="60" height="60" as="geometry" />
        </mxCell>
        <mxCell id="J4aeNhYYvG5e2JbsOcUa-2" value="2" style="ellipse;whiteSpace=wrap;html=1;aspect=fixed;" vertex="1" parent="1">
          <mxGeometry x="320" y="190" width="60" height="60" as="geometry" />
        </mxCell>
        <mxCell id="J4aeNhYYvG5e2JbsOcUa-3" value="3" style="ellipse;whiteSpace=wrap;html=1;aspect=fixed;" vertex="1" parent="1">
          <mxGeometry x="410" y="190" width="60" height="60" as="geometry" />
        </mxCell>
        <mxCell id="J4aeNhYYvG5e2JbsOcUa-6" value="dummy" style="ellipse;whiteSpace=wrap;html=1;aspect=fixed;" vertex="1" parent="1">
          <mxGeometry x="130" y="290" width="60" height="60" as="geometry" />
        </mxCell>
        <mxCell id="J4aeNhYYvG5e2JbsOcUa-7" value="1" style="ellipse;whiteSpace=wrap;html=1;aspect=fixed;" vertex="1" parent="1">
          <mxGeometry x="230" y="290" width="60" height="60" as="geometry" />
        </mxCell>
        <mxCell id="J4aeNhYYvG5e2JbsOcUa-8" value="3" style="ellipse;whiteSpace=wrap;html=1;aspect=fixed;" vertex="1" parent="1">
          <mxGeometry x="320" y="290" width="60" height="60" as="geometry" />
        </mxCell>
        <mxCell id="J4aeNhYYvG5e2JbsOcUa-9" value="4" style="ellipse;whiteSpace=wrap;html=1;aspect=fixed;" vertex="1" parent="1">
          <mxGeometry x="410" y="290" width="60" height="60" as="geometry" />
        </mxCell>
        <mxCell id="J4aeNhYYvG5e2JbsOcUa-10" value="dummy" style="ellipse;whiteSpace=wrap;html=1;aspect=fixed;" vertex="1" parent="1">
          <mxGeometry x="130" y="390" width="60" height="60" as="geometry" />
        </mxCell>
        <mxCell id="J4aeNhYYvG5e2JbsOcUa-11" value="2" style="ellipse;whiteSpace=wrap;html=1;aspect=fixed;" vertex="1" parent="1">
          <mxGeometry x="230" y="390" width="60" height="60" as="geometry" />
        </mxCell>
        <mxCell id="J4aeNhYYvG5e2JbsOcUa-12" value="1" style="ellipse;whiteSpace=wrap;html=1;aspect=fixed;" vertex="1" parent="1">
          <mxGeometry x="320" y="390" width="60" height="60" as="geometry" />
        </mxCell>
        <mxCell id="J4aeNhYYvG5e2JbsOcUa-14" value="dummy" style="ellipse;whiteSpace=wrap;html=1;aspect=fixed;" vertex="1" parent="1">
          <mxGeometry x="130" y="490" width="60" height="60" as="geometry" />
        </mxCell>
        <mxCell id="J4aeNhYYvG5e2JbsOcUa-15" value="3" style="ellipse;whiteSpace=wrap;html=1;aspect=fixed;" vertex="1" parent="1">
          <mxGeometry x="230" y="490" width="60" height="60" as="geometry" />
        </mxCell>
        <mxCell id="J4aeNhYYvG5e2JbsOcUa-16" value="2" style="ellipse;whiteSpace=wrap;html=1;aspect=fixed;" vertex="1" parent="1">
          <mxGeometry x="320" y="490" width="60" height="60" as="geometry" />
        </mxCell>
        <mxCell id="J4aeNhYYvG5e2JbsOcUa-17" value="1" style="ellipse;whiteSpace=wrap;html=1;aspect=fixed;" vertex="1" parent="1">
          <mxGeometry x="410" y="490" width="60" height="60" as="geometry" />
        </mxCell>
      </root>
    </mxGraphModel>
  </diagram>
</mxfile>
